<svg viewBox="0 0 100 100" fill="none" xmlns="http://www.w3.org/2000/svg">
  <!-- BLUE FIGURE -->
  <circle cx="50" cy="14.5" r="7.4" fill="#244d77" />
  <path d="
    M 50 92.5
    A 40.5 40.5 0 0 1 41.5 19.5
    A 10 10 0 0 0 58.5 19.5
    A 40.5 40.5 0 0 1 50 92.5 Z

    M 50 91.5
    A 31.5 31.5 0 0 1 43.5 28.5
    C 45.5 27.2 47.7 26.5 50 26.5
    C 52.3 26.5 54.5 27.2 56.5 28.5
    A 31.5 31.5 0 0 1 50 91.5 Z
  " fill="#244d77" fill-rule="evenodd" />

  <!-- GREEN FIGURE -->
  <circle cx="50" cy="34.8" r="6.4" fill="#4e8065" />
  <path d="
    M 49.5 86.5
    A 28 28 0 0 1 42.5 39.5
    A 9 9 0 0 0 57.5 39.5
    A 28 28 0 0 1 50.5 86.5 Z

    M 49.5 85
    A 20 20 0 0 1 44.5 46.5
    C 46.2 45.2 48 44.5 50 44.5
    C 52 44.5 53.8 45.2 55.5 46.5
    A 20 20 0 0 1 50.5 85 Z
  " fill="#4e8065" fill-rule="evenodd" />

  <!-- YELLOW FIGURE -->
  <circle cx="50" cy="52.8" r="5.5" fill="#e8a43a" />
  <path d="
    M 41.5 92
    L 41.5 58
    C 43.8 56.8 46.8 56 50 56
    C 53.2 56 56.2 56.8 58.5 58
    L 58.5 92
    L 53 92
    L 53 74
    A 3 3 0 0 0 47 74
    L 47 92
    L 41.5 92 Z
  " fill="#e8a43a" />
</svg>